<?xml version="1.0" encoding="utf-8" standalone="no"?>
<!DOCTYPE svg PUBLIC "-//W3C//DTD SVG 1.1//EN"
  "http://www.w3.org/Graphics/SVG/1.1/DTD/svg11.dtd">
<svg xmlns:xlink="http://www.w3.org/1999/xlink" width="266.112pt" height="266.112pt" viewBox="0 0 266.112 266.112" xmlns="http://www.w3.org/2000/svg" version="1.1">
 <metadata>
  <rdf:RDF xmlns:dc="http://purl.org/dc/elements/1.1/" xmlns:cc="http://creativecommons.org/ns#" xmlns:rdf="http://www.w3.org/1999/02/22-rdf-syntax-ns#">
   <cc:Work>
    <dc:type rdf:resource="http://purl.org/dc/dcmitype/StillImage"/>
    <dc:date>2024-12-31T15:54:45.864524</dc:date>
    <dc:format>image/svg+xml</dc:format>
    <dc:creator>
     <cc:Agent>
      <dc:title>Matplotlib v3.9.4, https://matplotlib.org/</dc:title>
     </cc:Agent>
    </dc:creator>
   </cc:Work>
  </rdf:RDF>
 </metadata>
 <defs>
  <style type="text/css">*{stroke-linejoin: round; stroke-linecap: butt}</style>
 </defs>
 <g id="figure_1">
  <g id="patch_1">
   <path d="M 0 266.112 
L 266.112 266.112 
L 266.112 0 
L 0 0 
z
" style="fill: #ffffff"/>
  </g>
  <g id="axes_1">
   <g id="patch_2">
    <path d="M 0 266.112 
L 266.112 266.112 
L 266.112 -0 
L 0 -0 
z
" clip-path="url(#p5902df047d)" style="fill: #ffffff"/>
   </g>
   <g id="patch_3">
    <path d="M 26.6112 239.5008 
L 53.2224 239.5008 
L 53.2224 212.8896 
L 26.6112 212.8896 
z
" clip-path="url(#p5902df047d)"/>
   </g>
   <g id="patch_4">
    <path d="M 53.2224 239.5008 
L 79.8336 239.5008 
L 79.8336 212.8896 
L 53.2224 212.8896 
z
" clip-path="url(#p5902df047d)" style="fill: #ffffff"/>
   </g>
   <g id="patch_5">
    <path d="M 79.8336 239.5008 
L 106.4448 239.5008 
L 106.4448 212.8896 
L 79.8336 212.8896 
z
" clip-path="url(#p5902df047d)"/>
   </g>
   <g id="patch_6">
    <path d="M 106.4448 239.5008 
L 133.056 239.5008 
L 133.056 212.8896 
L 106.4448 212.8896 
z
" clip-path="url(#p5902df047d)" style="fill: #ffffff"/>
   </g>
   <g id="patch_7">
    <path d="M 133.056 239.5008 
L 159.6672 239.5008 
L 159.6672 212.8896 
L 133.056 212.8896 
z
" clip-path="url(#p5902df047d)"/>
   </g>
   <g id="patch_8">
    <path d="M 159.6672 239.5008 
L 186.2784 239.5008 
L 186.2784 212.8896 
L 159.6672 212.8896 
z
" clip-path="url(#p5902df047d)" style="fill: #ffffff"/>
   </g>
   <g id="patch_9">
    <path d="M 186.2784 239.5008 
L 212.8896 239.5008 
L 212.8896 212.8896 
L 186.2784 212.8896 
z
" clip-path="url(#p5902df047d)"/>
   </g>
   <g id="patch_10">
    <path d="M 212.8896 239.5008 
L 239.5008 239.5008 
L 239.5008 212.8896 
L 212.8896 212.8896 
z
" clip-path="url(#p5902df047d)" style="fill: #ffffff"/>
   </g>
   <g id="patch_11">
    <path d="M 26.6112 212.8896 
L 53.2224 212.8896 
L 53.2224 186.2784 
L 26.6112 186.2784 
z
" clip-path="url(#p5902df047d)" style="fill: #ffffff"/>
   </g>
   <g id="patch_12">
    <path d="M 53.2224 212.8896 
L 79.8336 212.8896 
L 79.8336 186.2784 
L 53.2224 186.2784 
z
" clip-path="url(#p5902df047d)"/>
   </g>
   <g id="patch_13">
    <path d="M 79.8336 212.8896 
L 106.4448 212.8896 
L 106.4448 186.2784 
L 79.8336 186.2784 
z
" clip-path="url(#p5902df047d)" style="fill: #ffffff"/>
   </g>
   <g id="patch_14">
    <path d="M 106.4448 212.8896 
L 133.056 212.8896 
L 133.056 186.2784 
L 106.4448 186.2784 
z
" clip-path="url(#p5902df047d)"/>
   </g>
   <g id="patch_15">
    <path d="M 133.056 212.8896 
L 159.6672 212.8896 
L 159.6672 186.2784 
L 133.056 186.2784 
z
" clip-path="url(#p5902df047d)" style="fill: #ffffff"/>
   </g>
   <g id="patch_16">
    <path d="M 159.6672 212.8896 
L 186.2784 212.8896 
L 186.2784 186.2784 
L 159.6672 186.2784 
z
" clip-path="url(#p5902df047d)"/>
   </g>
   <g id="patch_17">
    <path d="M 186.2784 212.8896 
L 212.8896 212.8896 
L 212.8896 186.2784 
L 186.2784 186.2784 
z
" clip-path="url(#p5902df047d)" style="fill: #ffffff"/>
   </g>
   <g id="patch_18">
    <path d="M 212.8896 212.8896 
L 239.5008 212.8896 
L 239.5008 186.2784 
L 212.8896 186.2784 
z
" clip-path="url(#p5902df047d)"/>
   </g>
   <g id="patch_19">
    <path d="M 26.6112 186.2784 
L 53.2224 186.2784 
L 53.2224 159.6672 
L 26.6112 159.6672 
z
" clip-path="url(#p5902df047d)"/>
   </g>
   <g id="patch_20">
    <path d="M 53.2224 186.2784 
L 79.8336 186.2784 
L 79.8336 159.6672 
L 53.2224 159.6672 
z
" clip-path="url(#p5902df047d)" style="fill: #ffffff"/>
   </g>
   <g id="patch_21">
    <path d="M 79.8336 186.2784 
L 106.4448 186.2784 
L 106.4448 159.6672 
L 79.8336 159.6672 
z
" clip-path="url(#p5902df047d)"/>
   </g>
   <g id="patch_22">
    <path d="M 106.4448 186.2784 
L 133.056 186.2784 
L 133.056 159.6672 
L 106.4448 159.6672 
z
" clip-path="url(#p5902df047d)" style="fill: #ffffff"/>
   </g>
   <g id="patch_23">
    <path d="M 133.056 186.2784 
L 159.6672 186.2784 
L 159.6672 159.6672 
L 133.056 159.6672 
z
" clip-path="url(#p5902df047d)"/>
   </g>
   <g id="patch_24">
    <path d="M 159.6672 186.2784 
L 186.2784 186.2784 
L 186.2784 159.6672 
L 159.6672 159.6672 
z
" clip-path="url(#p5902df047d)" style="fill: #ffffff"/>
   </g>
   <g id="patch_25">
    <path d="M 186.2784 186.2784 
L 212.8896 186.2784 
L 212.8896 159.6672 
L 186.2784 159.6672 
z
" clip-path="url(#p5902df047d)"/>
   </g>
   <g id="patch_26">
    <path d="M 212.8896 186.2784 
L 239.5008 186.2784 
L 239.5008 159.6672 
L 212.8896 159.6672 
z
" clip-path="url(#p5902df047d)" style="fill: #ffffff"/>
   </g>
   <g id="patch_27">
    <path d="M 26.6112 159.6672 
L 53.2224 159.6672 
L 53.2224 133.056 
L 26.6112 133.056 
z
" clip-path="url(#p5902df047d)" style="fill: #ffffff"/>
   </g>
   <g id="patch_28">
    <path d="M 53.2224 159.6672 
L 79.8336 159.6672 
L 79.8336 133.056 
L 53.2224 133.056 
z
" clip-path="url(#p5902df047d)"/>
   </g>
   <g id="patch_29">
    <path d="M 79.8336 159.6672 
L 106.4448 159.6672 
L 106.4448 133.056 
L 79.8336 133.056 
z
" clip-path="url(#p5902df047d)" style="fill: #ffffff"/>
   </g>
   <g id="patch_30">
    <path d="M 106.4448 159.6672 
L 133.056 159.6672 
L 133.056 133.056 
L 106.4448 133.056 
z
" clip-path="url(#p5902df047d)"/>
   </g>
   <g id="patch_31">
    <path d="M 133.056 159.6672 
L 159.6672 159.6672 
L 159.6672 133.056 
L 133.056 133.056 
z
" clip-path="url(#p5902df047d)" style="fill: #ffffff"/>
   </g>
   <g id="patch_32">
    <path d="M 159.6672 159.6672 
L 186.2784 159.6672 
L 186.2784 133.056 
L 159.6672 133.056 
z
" clip-path="url(#p5902df047d)"/>
   </g>
   <g id="patch_33">
    <path d="M 186.2784 159.6672 
L 212.8896 159.6672 
L 212.8896 133.056 
L 186.2784 133.056 
z
" clip-path="url(#p5902df047d)" style="fill: #ffffff"/>
   </g>
   <g id="patch_34">
    <path d="M 212.8896 159.6672 
L 239.5008 159.6672 
L 239.5008 133.056 
L 212.8896 133.056 
z
" clip-path="url(#p5902df047d)"/>
   </g>
   <g id="patch_35">
    <path d="M 26.6112 133.056 
L 53.2224 133.056 
L 53.2224 106.4448 
L 26.6112 106.4448 
z
" clip-path="url(#p5902df047d)"/>
   </g>
   <g id="patch_36">
    <path d="M 53.2224 133.056 
L 79.8336 133.056 
L 79.8336 106.4448 
L 53.2224 106.4448 
z
" clip-path="url(#p5902df047d)" style="fill: #ffffff"/>
   </g>
   <g id="patch_37">
    <path d="M 79.8336 133.056 
L 106.4448 133.056 
L 106.4448 106.4448 
L 79.8336 106.4448 
z
" clip-path="url(#p5902df047d)"/>
   </g>
   <g id="patch_38">
    <path d="M 106.4448 133.056 
L 133.056 133.056 
L 133.056 106.4448 
L 106.4448 106.4448 
z
" clip-path="url(#p5902df047d)" style="fill: #ffffff"/>
   </g>
   <g id="patch_39">
    <path d="M 133.056 133.056 
L 159.6672 133.056 
L 159.6672 106.4448 
L 133.056 106.4448 
z
" clip-path="url(#p5902df047d)"/>
   </g>
   <g id="patch_40">
    <path d="M 159.6672 133.056 
L 186.2784 133.056 
L 186.2784 106.4448 
L 159.6672 106.4448 
z
" clip-path="url(#p5902df047d)" style="fill: #ffffff"/>
   </g>
   <g id="patch_41">
    <path d="M 186.2784 133.056 
L 212.8896 133.056 
L 212.8896 106.4448 
L 186.2784 106.4448 
z
" clip-path="url(#p5902df047d)"/>
   </g>
   <g id="patch_42">
    <path d="M 212.8896 133.056 
L 239.5008 133.056 
L 239.5008 106.4448 
L 212.8896 106.4448 
z
" clip-path="url(#p5902df047d)" style="fill: #ffffff"/>
   </g>
   <g id="patch_43">
    <path d="M 26.6112 106.4448 
L 53.2224 106.4448 
L 53.2224 79.8336 
L 26.6112 79.8336 
z
" clip-path="url(#p5902df047d)" style="fill: #ffffff"/>
   </g>
   <g id="patch_44">
    <path d="M 53.2224 106.4448 
L 79.8336 106.4448 
L 79.8336 79.8336 
L 53.2224 79.8336 
z
" clip-path="url(#p5902df047d)"/>
   </g>
   <g id="patch_45">
    <path d="M 79.8336 106.4448 
L 106.4448 106.4448 
L 106.4448 79.8336 
L 79.8336 79.8336 
z
" clip-path="url(#p5902df047d)" style="fill: #ffffff"/>
   </g>
   <g id="patch_46">
    <path d="M 106.4448 106.4448 
L 133.056 106.4448 
L 133.056 79.8336 
L 106.4448 79.8336 
z
" clip-path="url(#p5902df047d)"/>
   </g>
   <g id="patch_47">
    <path d="M 133.056 106.4448 
L 159.6672 106.4448 
L 159.6672 79.8336 
L 133.056 79.8336 
z
" clip-path="url(#p5902df047d)" style="fill: #ffffff"/>
   </g>
   <g id="patch_48">
    <path d="M 159.6672 106.4448 
L 186.2784 106.4448 
L 186.2784 79.8336 
L 159.6672 79.8336 
z
" clip-path="url(#p5902df047d)"/>
   </g>
   <g id="patch_49">
    <path d="M 186.2784 106.4448 
L 212.8896 106.4448 
L 212.8896 79.8336 
L 186.2784 79.8336 
z
" clip-path="url(#p5902df047d)" style="fill: #ffffff"/>
   </g>
   <g id="patch_50">
    <path d="M 212.8896 106.4448 
L 239.5008 106.4448 
L 239.5008 79.8336 
L 212.8896 79.8336 
z
" clip-path="url(#p5902df047d)"/>
   </g>
   <g id="patch_51">
    <path d="M 26.6112 79.8336 
L 53.2224 79.8336 
L 53.2224 53.2224 
L 26.6112 53.2224 
z
" clip-path="url(#p5902df047d)"/>
   </g>
   <g id="patch_52">
    <path d="M 53.2224 79.8336 
L 79.8336 79.8336 
L 79.8336 53.2224 
L 53.2224 53.2224 
z
" clip-path="url(#p5902df047d)" style="fill: #ffffff"/>
   </g>
   <g id="patch_53">
    <path d="M 79.8336 79.8336 
L 106.4448 79.8336 
L 106.4448 53.2224 
L 79.8336 53.2224 
z
" clip-path="url(#p5902df047d)"/>
   </g>
   <g id="patch_54">
    <path d="M 106.4448 79.8336 
L 133.056 79.8336 
L 133.056 53.2224 
L 106.4448 53.2224 
z
" clip-path="url(#p5902df047d)" style="fill: #ffffff"/>
   </g>
   <g id="patch_55">
    <path d="M 133.056 79.8336 
L 159.6672 79.8336 
L 159.6672 53.2224 
L 133.056 53.2224 
z
" clip-path="url(#p5902df047d)"/>
   </g>
   <g id="patch_56">
    <path d="M 159.6672 79.8336 
L 186.2784 79.8336 
L 186.2784 53.2224 
L 159.6672 53.2224 
z
" clip-path="url(#p5902df047d)" style="fill: #ffffff"/>
   </g>
   <g id="patch_57">
    <path d="M 186.2784 79.8336 
L 212.8896 79.8336 
L 212.8896 53.2224 
L 186.2784 53.2224 
z
" clip-path="url(#p5902df047d)"/>
   </g>
   <g id="patch_58">
    <path d="M 212.8896 79.8336 
L 239.5008 79.8336 
L 239.5008 53.2224 
L 212.8896 53.2224 
z
" clip-path="url(#p5902df047d)" style="fill: #ffffff"/>
   </g>
   <g id="patch_59">
    <path d="M 26.6112 53.2224 
L 53.2224 53.2224 
L 53.2224 26.6112 
L 26.6112 26.6112 
z
" clip-path="url(#p5902df047d)" style="fill: #ffffff"/>
   </g>
   <g id="patch_60">
    <path d="M 53.2224 53.2224 
L 79.8336 53.2224 
L 79.8336 26.6112 
L 53.2224 26.6112 
z
" clip-path="url(#p5902df047d)"/>
   </g>
   <g id="patch_61">
    <path d="M 79.8336 53.2224 
L 106.4448 53.2224 
L 106.4448 26.6112 
L 79.8336 26.6112 
z
" clip-path="url(#p5902df047d)" style="fill: #ffffff"/>
   </g>
   <g id="patch_62">
    <path d="M 106.4448 53.2224 
L 133.056 53.2224 
L 133.056 26.6112 
L 106.4448 26.6112 
z
" clip-path="url(#p5902df047d)"/>
   </g>
   <g id="patch_63">
    <path d="M 133.056 53.2224 
L 159.6672 53.2224 
L 159.6672 26.6112 
L 133.056 26.6112 
z
" clip-path="url(#p5902df047d)" style="fill: #ffffff"/>
   </g>
   <g id="patch_64">
    <path d="M 159.6672 53.2224 
L 186.2784 53.2224 
L 186.2784 26.6112 
L 159.6672 26.6112 
z
" clip-path="url(#p5902df047d)"/>
   </g>
   <g id="patch_65">
    <path d="M 186.2784 53.2224 
L 212.8896 53.2224 
L 212.8896 26.6112 
L 186.2784 26.6112 
z
" clip-path="url(#p5902df047d)" style="fill: #ffffff"/>
   </g>
   <g id="patch_66">
    <path d="M 212.8896 53.2224 
L 239.5008 53.2224 
L 239.5008 26.6112 
L 212.8896 26.6112 
z
" clip-path="url(#p5902df047d)"/>
   </g>
  </g>
 </g>
 <defs>
  <clipPath id="p5902df047d">
   <rect x="0" y="-0" width="266.112" height="266.112"/>
  </clipPath>
 </defs>
</svg>
